PathFileType	4	(X/Y/Z)	59_2_23_p1_0-274.trc
DataRate	CameraRate	NumFrames	NumMarkers	Units	OrigDataRate	OrigDataStartFrame	OrigNumFrames
50.0	50.0	6	27	m	50.0	206	275
Frame#	Time	RHip			RKnee			RAnkle			RBigToe			RSmallToe			RHeel			LHip			LKnee			LAnkle			LBigToe			LSmallToe			LHeel			Neck			Head			Nose			RShoulder			RElbow			RWrist			RThumb			RIndex			RPinky			LShoulder			LElbow			LWrist			LThumb			LIndex			LPinky			
		X1	Y1	Z1	X2	Y2	Z2	X3	Y3	Z3	X4	Y4	Z4	X5	Y5	Z5	X6	Y6	Z6	X7	Y7	Z7	X8	Y8	Z8	X9	Y9	Z9	X10	Y10	Z10	X11	Y11	Z11	X12	Y12	Z12	X13	Y13	Z13	X14	Y14	Z14	X15	Y15	Z15	X16	Y16	Z16	X17	Y17	Z17	X18	Y18	Z18	X19	Y19	Z19	X20	Y20	Z20	X21	Y21	Z21	X22	Y22	Z22	X23	Y23	Z23	X24	Y24	Z24	X25	Y25	Z25	X26	Y26	Z26	X27	Y27	Z27	
206	4.12	0.2856899608006597	0.533161854126973	1.0617606319958675	0.29123890967003807	0.5805988862291845	1.4799971284181703	0.2926043800159086	0.719578933793752	1.880734414661435	0.29485918230182423	0.5853522795961793	1.949834943853606	0.3537902459313411	0.6087207215867727	1.9287234551137113	0.27784862447811837	0.8119076264340197	1.9495528911215556	0.10495093664944508	0.47883976544398554	1.0556297641941395	0.10356737299070402	0.6159527040298581	1.5166115326451635	0.09895207308002503	0.725872090870023	1.8927052875006487	0.128182544037897	0.5916799094414478	1.9529315815390176	0.0634217265762863	0.6057271843119687	1.9333846423796517	0.10769448913544886	0.7685614415322286	1.9361060565115367	0.36790514424953025	0.3480977403871523	0.6078144851550242	0.5061654339470745	0.2553155566539598	0.3975470140405239	0.525077370038117	0.2628864161764779	0.5268353209367348	0.4551938259916261	0.43120641480382516	0.6530373722366652	0.5044403299117627	0.39892296700203717	0.8641139513659555	0.5823242830822849	0.36980791640630895	0.6795373017380569	0.5575381766422173	0.36824459412372457	0.5909280241744858	0.5831954200144733	0.3713945791085503	0.557460832831099	0.628802117053417	0.35274424386269726	0.6009094010772184	0.22113817599825558	0.30639873237214177	0.6185451027524179	0.18588977359456846	0.32313104866814496	0.8772844609890157	0.4096934689968332	0.31400085663314453	0.874152948609954	0.49293720328423707	0.2884377109001411	0.8336081684579011	0.5174524228918415	0.30943727928267273	0.8423175012021558	0.487035604477955	0.25188194967723426	0.8657980696715304
207	4.14	0.28574642910409026	0.5332290336272693	1.0619003900761725	0.2912228865654768	0.5806401143985352	1.4799786655832405	0.29356302269191975	0.717799620181498	1.8758909247782143	0.2944578933337156	0.5875429802209273	1.9462181158488043	0.3538984710100277	0.6090779887017707	1.9288278508509868	0.27389821303310546	0.7965697728264375	1.9437131755892714	0.10486913167586397	0.47892129752308144	1.05595692006816	0.10342431740561046	0.6162155751789036	1.516553664882316	0.09997754843789078	0.7289100305168073	1.8988180206561847	0.1281899115643686	0.5916594270158811	1.9528949191847538	0.06299052733318693	0.6074380258575586	1.9299107469943775	0.1077783723753566	0.7683287175553667	1.9363337747504585	0.3679020321681539	0.3477289267969801	0.607866191001707	0.49768724469774295	0.24314444574446423	0.3921161494877831	0.5206611460952412	0.26309743889252823	0.5269863232516544	0.45173080048092734	0.44465726383942256	0.6532236237703102	0.497937476691713	0.4140635702314885	0.8706014007025163	0.5794894711760539	0.3813841967449236	0.6763976219429926	0.552044209922999	0.3669593441875153	0.5875095885042201	0.5875917323247952	0.3845514893432721	0.5533951868961211	0.6337482808885251	0.4037878161763476	0.6011673023685059	0.2205406664422846	0.3041964926427585	0.6153030848612931	0.18988424041613394	0.3104760534165187	0.8760212204389006	0.40579239814996493	0.3130158518089289	0.8742031335756241	0.4966697746236089	0.29988539100266937	0.8383968336556482	0.513267281744444	0.30830552925852406	0.8422541073733898	0.49159611947307486	0.26452042051081354	0.8701130001376228
208	4.16	0.2856517276964289	0.5329301978632712	1.061977083268834	0.2911682338592598	0.5806519889523983	1.4800985151391208	0.2926629057924593	0.7195245864576222	1.880780592907164	0.2943629410517525	0.587356400053784	1.9461793701763832	0.34808659120318103	0.6075160263136717	1.9329693293360377	0.2780444994162307	0.8116636981898242	1.9497805781978241	0.10418785008379004	0.4801733249193217	1.060537511599251	0.10244396652238454	0.6175315578140367	1.5207925836245857	0.09898888158334825	0.7257595425413453	1.8927026054488127	0.1273823601374164	0.5881152745750721	1.9470673621324246	0.06342723165533586	0.6054251853413818	1.933309773695681	0.11106419064774226	0.7827615500549087	1.9419813454243129	0.3643086221221038	0.36108829258409186	0.6078354874963479	0.4972102513821289	0.24363447082161757	0.38827661732324226	0.5203086839576349	0.2613923565596149	0.52320127905877	0.4483710653468815	0.45797535501639514	0.656953179801226	0.4948710027618745	0.42692232816931375	0.8691127089927111	0.575023288311144	0.38045911850670366	0.6731910358131163	0.5513247472008282	0.37780052300899974	0.5846715474976705	0.5875099311208347	0.3849793752190877	0.5534231741166838	0.633515902871956	0.4027049528577114	0.5980949149792626	0.22033149819963446	0.3043908216187051	0.6153102888163696	0.18603799109339914	0.3091290302498123	0.8761479247147309	0.3978696383611975	0.31047387856953623	0.8742420866207011	0.49201127530065125	0.29736048722672215	0.8384401589724643	0.5127764164842963	0.30935420909132055	0.8459626598661869	0.4845978119479772	0.2752840547578198	0.8718443159315766
209	4.18	0.28998352895628193	0.5356217426914428	1.0627129401042998	0.29112300919341877	0.5806723848287773	1.4800112618198145	0.2930654210453213	0.7176597434082337	1.884897411550769	0.29378359967062967	0.5871118618880583	1.9549416103064658	0.34801119421238036	0.6070713917236334	1.933041221124531	0.2771146335853599	0.8136827850230723	1.9556615126977717	0.10413429135436195	0.48029806665998226	1.0603391528046267	0.10188442167163012	0.6184072890600658	1.5161053158534756	0.09888735233288051	0.725728119253959	1.8924391140766739	0.12435487797858476	0.5741792263010465	1.9409592114014038	0.06209514187795908	0.6040236238353508	1.9241552682586067	0.11104982533577007	0.7830503515540009	1.9420113517642952	0.36083822220627254	0.3739747454744243	0.6045282249317985	0.493951862620096	0.2552809944466543	0.38405160408521605	0.5060442036230172	0.27350729487787845	0.5189376655262834	0.4519020747375753	0.4588421785099398	0.6538355790299597	0.4886505922515051	0.4539985607724922	0.8697220040130241	0.5735186509763569	0.39781274200074496	0.6967346219316158	0.5357691488223929	0.37528965745918413	0.5898654540418647	0.5844822230213741	0.4000441533050833	0.5497326832989144	0.6273013330452165	0.4121565861739863	0.5957880598727986	0.2160633101075113	0.30263378213544206	0.6120208823368931	0.182208577400649	0.3217439117946131	0.8738367414313509	0.39803015979386824	0.32542512282887903	0.8718487930153023	0.48554555350856804	0.30089394092888466	0.8332825993053277	0.5060242201302146	0.31111259918231227	0.835340431601443	0.4911371132471575	0.2630867765629559	0.8671339545289232
210	4.2	0.28943788500620654	0.537019255055242	1.0669379572119795	0.29030895404726914	0.58187496807247	1.4848041805921988	0.2929440270109596	0.717350325126473	1.8849425004174847	0.29021085000813623	0.5737713968240462	1.949194017808728	0.34803620310573996	0.6072649715604548	1.9330039070412142	0.2770148168503153	0.8137605004567596	1.955703316854291	0.10396352783926217	0.48151404899198463	1.0567091916049614	0.10213571967532184	0.618916561245862	1.517043363362084	0.09892167723719461	0.7258366186836747	1.8925748833288556	0.12418715713062257	0.573965659871087	1.94084398688131	0.06211854011579729	0.6041861227008584	1.924167611284909	0.11570535920304463	0.7869891953853382	1.9432413005544145	0.3603133177650649	0.372111523928427	0.6007660543888018	0.4858838029286893	0.24400639556180947	0.38151205272207356	0.5055791309981208	0.27442477077286487	0.5151463174355198	0.45170576580536737	0.4596465546671661	0.650686554074483	0.4887810018506021	0.45346414213465275	0.8703123376545893	0.5753384889146902	0.38575332413951297	0.6926121056592307	0.524520578216435	0.374745305645563	0.5928043678378968	0.5759930160415693	0.3890273333059418	0.5505177858502901	0.6124442577652502	0.39088642722219574	0.5978777820758117	0.21581210599990266	0.302501221222863	0.6120344063656048	0.17760736031283736	0.31988936507022214	0.8702392698456699	0.3860518686989374	0.3009686283072083	0.8657251429774335	0.48099502875306543	0.29063114417728386	0.8332878071154429	0.5057217958085093	0.3107122929851576	0.8352374328174751	0.4870098433241532	0.25047554959795676	0.8613493846050163
211	4.22	0.2901349637306133	0.535386516572383	1.0622684299903542	0.29108486427280994	0.5804656719265653	1.480305507642538	0.2890465901785646	0.7019650632181157	1.878786931534338	0.2900594838197099	0.573879378631356	1.9493108599975295	0.34460215126796384	0.592620885815574	1.931424687387655	0.27705261381556046	0.8086751837687274	1.9448397303460387	0.1042806672870227	0.48051740368586454	1.060507826300799	0.10252644961839033	0.6172058906775845	1.520251336010521	0.09891826435041814	0.7258287828245255	1.892467010120012	0.12421488700034328	0.5742580289868402	1.9408967118343947	0.06202276668093398	0.6043929111583719	1.924235350542779	0.1110821246813496	0.7830093554931657	1.9417983119501756	0.3564885475990989	0.37013607191464404	0.5972337956427706	0.4850563117165187	0.24172577783623855	0.37175085184828155	0.5047819097449338	0.27248781362522057	0.5044170217554247	0.45095623346034874	0.44384449957590033	0.6454893582756529	0.49889598585995576	0.42669616763862944	0.8620531655303978	0.5757023374096005	0.3830305776142777	0.6810827386996876	0.5283189106366988	0.38048640978127873	0.5824354456845021	0.5733490828002862	0.4023688102920423	0.5460518996936496	0.5991714738280409	0.40722483144399985	0.592736195319527	0.21565795595002965	0.30284337410094003	0.6120803780788991	0.1779284934545329	0.31878731637351476	0.8700507068213291	0.389428438572986	0.3001402316575113	0.8621826879102064	0.4767779788115417	0.2807541321873443	0.8295555717780407	0.5056991009454752	0.31081493476689587	0.8347887971318175	0.4862772783756021	0.2466988880918792	0.8537331747700767
